{
  "accessors": [
    {
      "bufferView": 1,
      "componentType": 5126,
      "count": 570,
      "max": [
        -0.7761210203170776,
        1.9982609748840332,
        3.06522798538208
      ],
      "min": [
        -4.414687156677246,
        -1.4411150217056274,
        -1.5416619777679443
      ],
      "type": "VEC3"
    },
    {
      "bufferView": 1,
      "byteOffset": 6840,
      "componentType": 5126,
      "count": 570,
      "max": [
        0.9987070560455322,
        0.9824872612953186,
        0.9662570357322693
      ],
      "min": [
        -0.9986289143562317,
        -0.9997707009315491,
        -0.9621080756187439
      ],
      "type": "VEC3"
    },
    {
      "bufferView": 0,
      "componentType": 5125,
      "count": 2064,
      "type": "SCALAR"
    }
  ],
  "asset": {
    "extras": {
      "author": "Everios96 (https://sketchfab.com/ikarustelevision)",
      "license": "CC-BY-4.0 (http://creativecommons.org/licenses/by/4.0/)",
      "source": "https://sketchfab.com/3d-models/8-low-poly-asteroids-6019fc70e28f4b5283f66a4d1d21741b",
      "title": "8 Low Poly Asteroids"
    },
    "generator": "Sketchfab-12.56.0",
    "version": "2.0"
  },
  "bufferViews": [
    {
      "buffer": 0,
      "byteLength": 8256,
      "name": "floatBufferViews",
      "target": 34963
    },
    {
      "buffer": 0,
      "byteLength": 13680,
      "byteOffset": 8256,
      "byteStride": 12,
      "name": "floatBufferViews",
      "target": 34962
    }
  ],
  "buffers": [
    {
      "byteLength": 21936,
      "uri": "scene.bin"
    }
  ],
  "materials": [
    {
      "doubleSided": true,
      "name": "None",
      "pbrMetallicRoughness": {
        "baseColorFactor": [
          0.5469729369111547,
          0.5469729369111547,
          0.5469729369111547,
          1.0
        ],
        "metallicFactor": 0.0,
        "roughnessFactor": 0.7115027946394012
      }
    }
  ],
  "meshes": [
    {
      "name": "Object_0",
      "primitives": [
        {
          "attributes": {
            "NORMAL": 1,
            "POSITION": 0
          },
          "indices": 2,
          "material": 0,
          "mode": 4
        }
      ]
    }
  ],
  "nodes": [
    {
      "children": [
        1
      ],
      "matrix": [
        1.0,
        0.0,
        0.0,
        0.0,
        0.0,
        2.220446049250313e-16,
        -1.0,
        0.0,
        0.0,
        1.0,
        2.220446049250313e-16,
        0.0,
        0.0,
        0.0,
        0.0,
        1.0
      ],
      "name": "Sketchfab_model"
    },
    {
      "children": [
        2
      ],
      "name": "rock_001.obj.cleaner.materialmerger.gles"
    },
    {
      "mesh": 0,
      "name": "Object_2"
    }
  ],
  "scene": 0,
  "scenes": [
    {
      "name": "Sketchfab_Scene",
      "nodes": [
        0
      ]
    }
  ]
}
